# xmcd
#
# Track frame offsets: 
#        150
#        19895
#        43260
#        63980
#        84500
#        116585
#        140470
#        169870
#
# Disc length: 2720 seconds
#
# Revision: 12
# Processed by: cddbd v1.5.2PL0 Copyright (c) Steve Scherf et al.
# Submitted via: ExactAudioCopy v1.0b6
#
DISCID=6a0a9e08
DTITLE=Bob Marley and The Wailers - Live!
DYEAR=1975
DGENRE=Reggae
TTITLE0=Trenchtown Rock
TTITLE1=Burnin' and Lootin'
TTITLE2=Them Belly Full (But We Hungry)
TTITLE3=Lively Up Yourself
TTITLE4=No Woman, No Cry
TTITLE5=I Shot The Sheriff
TTITLE6=Get Up, Stand Up
TTITLE7=Kinky Reggae
EXTD=YEAR: 2001
EXTT0=
EXTT1=
EXTT2=
EXTT3=
EXTT4=
EXTT5=
EXTT6=
EXTT7=
PLAYORDER=
